# xmcd CD database file
#
# Track frame offsets:
#	150
#	16330
#	47375
#	61295
#	85998
#	101798
#	127303
#	133518
#	170655
#	176058
#	201783
#	205518
#	224005
#
# Disc length: 3142 seconds
#
# Revision: 0
# Processed by: cddbd v1.5.2PL0 Copyright (c) Steve Scherf et al.
# Submitted via: CDex 1.51
#
DISCID=c00c440d
DTITLE=Binder - Forgotten Pictures
DYEAR=1900
DGENRE=Jazz
TTITLE0=Overture
TTITLE1=Exiled Rainbow
TTITLE2=The Player
TTITLE3=Hymn
TTITLE4=Drummer
TTITLE5=Ballad
TTITLE6=Flying
TTITLE7=To My Beautiful Flower
TTITLE8=Bells
TTITLE9=Her Dance
TTITLE10=The Last Running Jump
TTITLE11=Noch etwas
TTITLE12=Short Note
EXTD=
EXTT0=
EXTT1=
EXTT2=
EXTT3=
EXTT4=
EXTT5=
EXTT6=
EXTT7=
EXTT8=
EXTT9=
EXTT10=
EXTT11=
EXTT12=
PLAYORDER=
